<svg xmlns="http://www.w3.org/2000/svg" viewBox="0 0 340.058 340.058"><defs><style>.a{fill:#0c0c0c;}</style></defs><title>chisel</title><path class="a" d="M0,35.355A43.268,43.268,0,0,1,35.355,0c42.456,32.71,63.569,57.613,75.013,75.012A193.949,193.949,0,0,0,136.8,107.9a192.473,192.473,0,0,0,32.382,25.928q-17.678,17.678-35.356,35.356A131.355,131.355,0,0,0,111.451,136.8c-15.652-16.549-31.6-24.435-37.706-27.7C54.722,98.922,28.946,78.865,0,35.355Z"/><path class="a" d="M177.6,212.959,212.959,177.6l127.1,127.1L304.7,340.058Z"/><path class="a" d="M133.829,169.185a44.4,44.4,0,0,1,35.356-35.356,47.074,47.074,0,0,0,43.795,43.795,48.448,48.448,0,0,1-13.951,23.433,47.388,47.388,0,0,1-21.4,11.922,48.606,48.606,0,0,0-43.795-43.794Z"/></svg>