<svg xmlns="http://www.w3.org/2000/svg" viewBox="0 0 327.439 327.67"><defs><style>.a{fill:#0c0c0c;}</style></defs><title>solder</title><path class="a" d="M.019,35.374A34.973,34.973,0,0,1,9.94,10.019a34.985,34.985,0,0,1,25.434-10L167.657,132.3,132.3,167.657Z"/><rect class="a" x="203.883" y="108.177" width="30" height="221.569" transform="translate(-90.72 218.906) rotate(-45)"/><path class="a" d="M322.494,327.03l-37.021-27.563a3.075,3.075,0,0,1-.338-4.642l9.133-9.134a3.076,3.076,0,0,1,4.624.314l27.888,36.7A3.076,3.076,0,0,1,322.494,327.03Z"/><circle class="a" cx="52.46" cy="239.496" r="42.52"/><rect class="a" x="32.875" y="24.228" width="10.873" height="216.003" transform="translate(-16.906 6.121) rotate(-7.489)"/><ellipse class="a" cx="49.631" cy="213.56" rx="30.929" ry="36.617" transform="translate(-27.41 8.29) rotate(-7.489)"/></svg>