<?xml version="1.0" encoding="utf-8"?>
<!-- Generator: Adobe Illustrator 16.0.0, SVG Export Plug-In . SVG Version: 6.00 Build 0)  -->
<!DOCTYPE svg PUBLIC "-//W3C//DTD SVG 1.1//EN" "http://www.w3.org/Graphics/SVG/1.1/DTD/svg11.dtd">
<svg version="1.1" id="logo" xmlns="http://www.w3.org/2000/svg" xmlns:xlink="http://www.w3.org/1999/xlink" x="0px" y="0px"
	 width="500px" height="500px" viewBox="0 0 500 500" enable-background="new 0 0 500 500" xml:space="preserve">
<g>
	<path d="M92,232v72h27v-18h18v18h27v-72H92z M137,268h-18v-18h18V268z"/>
	<polygon points="263,232 263,304 236,304 236,268 218,295 200,268 200,304 173,304 173,232 200.5,232 218.5,259 236.5,232 	"/>
	<path d="M371,232v72h27v-18h18v18h27v-72H371z M416,268h-18v-18h18V268z"/>
	<polygon points="164,196 164,223 83,223 83,304 56,304 56,196 	"/>
	<linearGradient id="SVGID_1_" gradientUnits="userSpaceOnUse" x1="164" y1="209.5" x2="443" y2="209.5">
		<stop  offset="0" style="stop-color:#A90000"/>
		<stop  offset="0.14" style="stop-color:#E17600"/>
		<stop  offset="0.3" style="stop-color:#D4BA00"/>
		<stop  offset="0.475" style="stop-color:#3E8900"/>
		<stop  offset="0.64" style="stop-color:#00C5FF"/>
		<stop  offset="0.825" style="stop-color:#000096"/>
		<stop  offset="1" style="stop-color:#960096"/>
	</linearGradient>
	<rect x="164" y="196" fill="url(#SVGID_1_)" width="279" height="27"/>
	<polygon points="362,232 362,304 335,304 335,268 317,295 299,268 299,304 272,304 272,232 299.5,232 317.5,259 335.5,232 	"/>
</g>
</svg>
